<svg width="22" height="22" viewBox="0 0 22 22" fill="none" xmlns="http://www.w3.org/2000/svg">
    <path d="M21.0786 15.3999H0.921143C2.61954 19.2835 6.49044 21.9999 10.9999 21.9999C15.5093 21.9999 19.3802 19.2835 21.0786 15.3999Z"
          fill="#F44336"/>
    <path d="M22 11.0001C22 9.4348 21.6678 7.94815 21.0788 6.6001H0.92125C0.3322 7.94815 0 9.4348 0 11.0001C0 12.5654 0.3322 14.052 0.92125 15.4001H21.0782C21.6678 14.052 22 12.5654 22 11.0001ZM10.0716 7.45095C10.5243 8.2589 11 7.6055 11 7.6055C11 7.6055 11.4757 8.2589 11.9279 7.45095C12.1858 7.98665 11.4351 8.4734 11 7.9839C10.5644 8.4734 9.8142 7.98665 10.0716 7.45095ZM9.4589 7.9806C9.4589 7.9806 6.72045 10.1206 8.734 13.2001C6.8376 12.0401 6.6715 8.85455 9.4589 7.9806ZM11.3152 14.2429L11 14.6526L10.6849 14.2456C10.6849 14.2456 9.9484 14.4893 8.97765 14.151C9.77405 14.151 10.2179 14.0108 10.3813 13.9277C10.3813 13.9277 8.57945 12.9537 8.61355 10.977C8.7197 8.97775 9.78505 8.36725 9.78505 8.36725C9.78505 8.36725 7.88865 11.1288 10.6733 13.4377L10.5529 10.5815V8.4844C10.7107 8.44755 11 8.11535 11 8.11535C11 8.11535 11.2893 8.44755 11.4466 8.48495V10.5821L11.3234 13.4382C14.1108 11.1321 12.2144 8.3678 12.2144 8.3678C12.2144 8.3678 13.2803 8.975 13.3859 10.9803C13.4206 12.957 11.6182 13.9277 11.6182 13.9277C11.7816 14.0108 12.2254 14.1538 13.0218 14.1538C12.0511 14.492 11.3152 14.2429 11.3152 14.2429ZM13.2688 13.2001C15.2796 10.1206 12.5438 7.9806 12.5438 7.9806C15.3285 8.85455 15.1624 12.0401 13.2688 13.2001Z"
          fill="#ECEFF1"/>
    <path d="M10.9999 0C6.49044 0 2.61954 2.71645 0.921143 6.6H21.0781C19.3802 2.71645 15.5093 0 10.9999 0Z"
          fill="#4CAF50"/>
    <path d="M12.4131 8.18494C12.4131 8.18494 14.9172 10.1435 13.0764 12.9622C14.81 11.9007 14.9618 8.98464 12.4131 8.18494Z"
          fill="#D32F2F"/>
    <path d="M10.999 8.18792C11.3978 8.63617 12.0847 8.19067 11.8488 7.70007C11.4346 8.43927 10.999 7.84142 10.999 7.84142C10.999 7.84142 10.564 8.43927 10.1498 7.70007C9.91389 8.19067 10.6008 8.63617 10.999 8.18792Z"
          fill="#D32F2F"/>
    <path d="M13.1841 10.9307C13.0873 9.09534 12.1116 8.53929 12.1116 8.53929C12.1116 8.53929 13.8474 11.0698 11.2959 13.1807L11.4087 10.5666V8.64709C11.2646 8.61299 10.9995 8.30884 10.9995 8.30884C10.9995 8.30884 10.7344 8.61299 10.5903 8.64709V10.5666L10.7003 13.1807C8.15159 11.0671 9.88739 8.53929 9.88739 8.53929C9.88739 8.53929 8.91169 9.09754 8.81489 10.9279C8.78354 12.7374 10.433 13.629 10.433 13.629C10.2834 13.7049 9.87694 13.8336 9.14819 13.8336C10.037 14.1432 10.7107 13.9199 10.7107 13.9199L10.9989 14.2923L11.2871 13.9172C11.2871 13.9172 11.9609 14.1454 12.8497 13.8358C12.1209 13.8358 11.7145 13.7049 11.5649 13.6284C11.566 13.6284 13.2154 12.7396 13.1841 10.9307Z"
          fill="#D32F2F"/>
    <path d="M9.58866 8.18494C7.03721 8.98464 7.18956 11.9007 8.92536 12.9622C7.08231 10.1435 9.58866 8.18494 9.58866 8.18494Z"
          fill="#D32F2F"/>
</svg>
